<svg xmlns="http://www.w3.org/2000/svg" viewBox="0 0 64 64" width="64" height="64" aria-hidden="true">
  <!-- Imunverse UI icon · "Item" (bekal run): tas selempang koral berkancing antibodi-Y krem + tali teal. -->
  <ellipse cx="32" cy="59" rx="18" ry="2.8" fill="#123f3a" opacity=".14"/>
  <path d="M22 22 C22 12 42 12 42 22" fill="none" stroke="#1f7a70" stroke-width="4" stroke-linecap="round"/>
  <rect x="10" y="21" width="44" height="34" rx="9" fill="#f2825c" stroke="#e96a4c" stroke-width="2.4"/>
  <path d="M10 33 C18 30 26 31 32 34 C38 31 46 30 54 33 V30 C46 27 38 28 32 31 C26 28 18 27 10 30 Z" fill="#e96a4c"/>
  <path d="M10 30 C18 27 26 28 32 31 C38 28 46 27 54 30" fill="none" stroke="#fffdf4" stroke-width="1.6" opacity=".5"/>
  <circle cx="32" cy="42" r="7" fill="#fffdf4" stroke="#123f3a" stroke-width="2"/>
  <path d="M32 46.5 V41.5 M32 41.5 L29.2 38.5 M32 41.5 L34.8 38.5" fill="none" stroke="#1f7a70" stroke-width="2" stroke-linecap="round" stroke-linejoin="round"/>
</svg>
